<?xml version="1.0" standalone="no"?>
<!DOCTYPE svg PUBLIC "-//W3C//DTD SVG 20010904//EN"
 "http://www.w3.org/TR/2001/REC-SVG-20010904/DTD/svg10.dtd">
<svg version="1.0" xmlns="http://www.w3.org/2000/svg"
 width="16.000000pt" height="16.000000pt" viewBox="0 0 16.000000 16.000000"
 preserveAspectRatio="xMidYMid meet">
<metadata>
Created by potrace 1.11, written by Peter Selinger 2001-2013
</metadata>
<g transform="translate(0.000000,16.000000) scale(0.001231,-0.001231)"
fill="#000000" stroke="none">
<path d="M2100 10050 c-246 -23 -412 -87 -504 -197 -57 -68 -96 -189 -96 -299
l0 -54 -103 0 c-287 0 -531 -75 -700 -215 -74 -62 -183 -192 -193 -231 -4 -14
30 -1340 75 -2947 45 -1607 81 -2968 81 -3024 0 -87 3 -103 17 -112 10 -5 17
-13 17 -18 -1 -4 3 -7 8 -5 10 3 7929 422 7974 422 20 0 22 8 34 140 8 77 13
143 12 147 -1 5 -44 6 -96 5 l-94 -4 -6 74 c-3 40 -7 213 -9 384 l-3 311 149
7 c83 3 208 6 279 6 l128 0 0 128 c0 71 -3 245 -7 387 l-6 258 -279 -6 -278
-5 0 214 0 214 153 1 c83 1 271 4 417 8 l264 6 -2 235 c-1 129 -5 274 -8 321
l-6 86 167 6 c93 4 240 7 328 7 l160 0 -6 188 c-4 103 -7 286 -7 406 l0 219
-325 -6 c-179 -3 -325 -5 -326 -4 0 1 -4 152 -9 335 -4 183 -9 334 -11 336 -2
1 -163 1 -356 -2 l-353 -4 7 -348 6 -347 -308 -7 c-169 -4 -308 -6 -310 -4 -1
2 -5 159 -7 349 l-5 346 280 6 c154 3 281 8 284 11 5 4 -12 527 -22 689 l-6
87 340 0 339 0 6 28 c10 48 34 294 41 407 7 130 -6 241 -32 266 -16 15 -223
28 -1828 120 l-1810 104 2 28 c1 16 -3 27 -10 27 -25 0 -690 60 -693 62 -8 9
-164 291 -169 307 -9 28 -50 59 -94 70 -43 12 -409 36 -756 51 -216 9 -466 15
-1455 35 -102 2 -228 -1 -280 -5z m4133 -1835 c276 -50 460 -162 581 -354 123
-195 111 -486 -30 -762 -223 -434 -743 -810 -1452 -1049 -316 -106 -756 -198
-1227 -255 -71 -9 -140 -18 -151 -20 -20 -4 -22 -15 -34 -151 -37 -431 36
-682 269 -927 214 -224 494 -322 843 -296 282 21 503 100 809 290 131 81 393
265 537 375 45 35 86 64 91 64 5 0 30 -28 56 -62 l47 -63 -114 -109 c-62 -59
-169 -155 -238 -213 -648 -543 -1241 -793 -1830 -770 -468 19 -794 190 -1029
542 -120 179 -190 342 -232 535 -33 151 -33 466 0 655 90 513 331 1029 697
1490 108 136 366 396 494 497 438 347 916 549 1413 598 126 12 393 4 500 -15z"/>
<path d="M5605 7984 c-272 -45 -595 -236 -879 -519 -319 -317 -559 -767 -729
-1365 -20 -69 -22 -86 -11 -88 39 -9 434 60 644 113 759 191 1355 636 1550
1156 50 135 65 315 34 420 -67 229 -297 336 -609 283z"/>
<path d="M11568 8853 l-118 -4 0 -112 c0 -62 3 -183 7 -269 l6 -158 218 0
c120 0 220 3 222 8 3 4 2 127 -1 275 l-5 267 -106 -2 c-58 -1 -159 -4 -223 -5z"/>
<path d="M9563 8590 c-177 -3 -323 -7 -326 -10 -2 -3 -2 -157 1 -342 l4 -338
162 0 c88 0 245 3 349 7 l187 6 0 141 c0 78 -3 232 -7 344 -6 197 -7 202 -27
200 -12 -1 -166 -5 -343 -8z"/>
<path d="M10950 8193 c-2 -30 1 -538 3 -540 2 -1 103 1 225 4 l222 6 0 186 c0
102 -3 223 -7 269 l-6 82 -218 0 c-121 0 -219 -3 -219 -7z"/>
<path d="M12174 7708 c3 -29 6 -119 6 -200 l0 -148 78 0 c42 0 114 3 160 7
l82 6 0 193 0 194 -166 0 -167 0 7 -52z"/>
<path d="M11448 7693 c-17 -4 -18 -24 -18 -239 l0 -234 176 0 177 0 -7 61 c-3
34 -6 142 -6 240 l0 179 -152 -1 c-84 -1 -161 -3 -170 -6z"/>
<path d="M10108 7263 c-16 -4 -18 -19 -18 -136 0 -73 3 -162 7 -199 l6 -68
203 0 204 0 0 108 c0 59 -3 151 -7 205 l-6 97 -186 -1 c-102 -1 -194 -3 -203
-6z"/>
<path d="M10688 6893 l-168 -3 0 -68 c0 -37 3 -158 7 -269 l6 -203 204 0 203
0 0 198 c0 110 -3 233 -6 275 l-7 77 -36 -2 c-20 -1 -111 -4 -203 -5z"/>
<path d="M12074 5814 c3 -9 6 -90 6 -180 l0 -164 129 0 c71 0 136 3 145 6 14
5 16 31 16 180 l0 174 -151 0 c-134 0 -150 -2 -145 -16z"/>
<path d="M10861 5803 l-84 -4 6 -196 c4 -108 7 -270 7 -361 l0 -165 292 7
c161 4 293 8 295 10 2 1 0 163 -4 359 l-6 357 -211 -2 c-116 -1 -249 -4 -295
-5z"/>
<path d="M9710 5267 c0 -57 3 -199 7 -316 l6 -212 248 3 c136 2 250 6 254 9 3
4 3 145 -1 313 l-7 306 -254 0 -253 0 0 -103z"/>
<path d="M11876 4753 l-129 -4 8 -177 c4 -97 8 -177 8 -177 1 0 67 1 146 3
l144 3 -7 61 c-3 34 -6 114 -6 179 0 108 -2 119 -17 117 -10 -1 -76 -4 -147
-5z"/>
<path d="M10451 4333 l-84 -4 6 -82 c4 -45 7 -142 7 -215 l0 -133 173 7 c94 4
174 8 175 10 2 1 1 97 -3 213 l-8 211 -91 -2 c-50 -1 -129 -4 -175 -5z"/>
<path d="M9340 3725 l0 -265 215 0 215 0 0 265 0 265 -215 0 -215 0 0 -265z"/>
</g>
</svg>
